<?xml version="1.0" encoding="utf-8"?>
<!-- Generator: Adobe Illustrator 24.1.1, SVG Export Plug-In . SVG Version: 6.00 Build 0)  -->
<svg version="1.1" id="Capa_1" xmlns="http://www.w3.org/2000/svg" xmlns:xlink="http://www.w3.org/1999/xlink" x="0px" y="0px"
	 viewBox="0 0 320.8 451" style="enable-background:new 0 0 320.8 451;" xml:space="preserve">
<style type="text/css">
	.st0{fill:#FFFFFF;}
</style>
<g>
	<path class="st0" d="M320.8,149.7c0-4-0.9-8-2.7-11.6c1.8-3.6,2.7-7.5,2.7-11.6c0-12.7-9.1-23.4-21.1-25.8
		c1.4-3.2,2.1-6.7,2.1-10.4c0-14.5-11.8-26.3-26.3-26.3c-4,0-7.8,0.9-11.3,2.6c-6.4-6.1-14.9-9.6-23.8-9.6c-2.3,0-4.6,0.2-6.8,0.7
		c-2-2-4.4-3.7-6.9-5c5.2-5.3,8.3-12.5,8.3-20.1C234.8,16.8,222,4,206.2,4c-6.9,0-13.4,2.4-18.5,6.8c-3-1-6.1-1.5-9.2-1.5
		c-5.6,0-11,1.6-15.6,4.6c-9.5-9-24.4-10.5-35.7-2.9c-9.7,6.6-14.2,18.4-11.9,29.4C104,42.5,95.3,51.7,93.9,63.1
		c-3.2-0.9-6.9-1.4-11-1.1c-6.2,0.5-11.7,2.6-16,6c-2.6-0.9-5.4-1.3-8.2-1.3c-14.5,0-26.3,11.8-26.3,26.3c0,0.9,0,1.8,0.1,2.7
		c-3.7,4.6-5.8,10.4-5.8,16.5c0,4.3,1,8.5,2.9,12.1c-15,0.9-26.9,13.3-26.9,28.6c0,7.2,2.7,13.9,7.3,19.1c-7.3,9-10.9,20.5-10,32.1
		L40.9,451h234.7l40.7-246.3l0.1-0.6c0.7-8.8-1.2-17.6-5.4-25.3c0.6-2.4,0.9-4.8,0.9-7.1c0-0.8,0-1.5-0.1-2.2
		C317.5,164.5,320.8,157.3,320.8,149.7z M53.7,436L53.7,436L15.1,202.6c-0.6-8.4,2.2-16.4,7.9-22.6c5.8-6.3,13.6-9.7,22.1-9.7h0.3
		c16.2,0,29.5,12.7,30.1,29l0,0.2l0.1,0.9c0,0.6,0,1.2,0,1.8L94.2,436H53.7z M150.8,436h-41.6L90.6,199.8c0.1-7.6,3.1-14.7,8.4-20.3
		c5.7-6,13.4-9.2,21.7-9.2c16.6,0,30.1,13.5,30.1,30.1V436z M165.8,436V200.4c0-16.6,13.5-30.1,30.1-30.1c8.3,0,16,3.3,21.7,9.2
		c5.3,5.5,8.3,12.7,8.4,20.3L207.4,436H165.8z M301.5,202.6L262.9,436h-40.5L241,202.5l0-0.3c0-0.6,0-1.2,0-1.8l0.1-0.8l0-0.3
		c0.6-16.2,13.8-29,30.1-29h0.3c8.5,0,16.4,3.4,22.1,9.7C299.3,186.2,302.1,194.2,301.5,202.6z M300,159.6l-4.6,2.6
		c-7.1-4.4-15.4-6.9-23.9-6.9h-0.3c-15.7,0-29.6,8-37.7,20.2c-1.5-2.2-3.2-4.4-5.1-6.4c-8.6-8.9-20.1-13.8-32.5-13.8
		c-15.7,0-29.5,8-37.6,20.2c-8.1-12.2-21.9-20.2-37.6-20.2c-12.4,0-23.9,4.9-32.5,13.8c-1.9,2-3.6,4.1-5.1,6.4
		c-8.1-12.2-21.9-20.2-37.7-20.2h-0.3c-8.4,0-16.6,2.4-23.7,6.7c-2.3-2.5-3.6-5.7-3.6-9.2c0-7.5,6.1-13.6,13.6-13.6
		c2.5,0,4.9,0.7,7.1,2l5.8,3.5l4.1-5.4c0.9-1.2,2-2.2,3.3-3.1l12.8-8.7L49.7,123c-4.7-1.5-7.9-5.8-7.9-10.8c0-3.2,1.4-6.3,3.8-8.5
		l3.5-3.1l-1.3-4.5c-0.3-1-0.4-2-0.4-3c0-6.2,5.1-11.3,11.3-11.3c2.1,0,4.1,0.6,5.9,1.6l5.8,3.5l4.1-5.4c2.5-3.3,6.6-4.3,9.7-4.5
		c6.7-0.6,11.5,3.4,14.4,5.7c0.9,0.7,1.7,1.4,2.5,1.9l5.8,3.5l4-5.4l3.7-4.8l-3.6-4.6c-1.6-2-2.4-4.4-2.4-7c0-6.2,5-11.3,11.2-11.3
		l4.2,0.2l2.4-3.1c0.7-0.9,1.5-1.7,2.3-2.4l4.7-3.7l-2.6-5.4c-2.9-6-0.9-13.4,4.6-17.2c6.2-4.2,14.7-2.6,18.9,3.6
		c0.3,0.4,0.5,0.8,0.7,1.3l5.4,10.3l7.2-9.1c2.6-3.3,6.5-5.2,10.7-5.2c2.5,0,4.9,0.7,7.1,2l5.8,3.5l4.1-5.4
		c2.6-3.4,6.6-5.4,10.8-5.4c7.5,0,13.6,6.1,13.6,13.6c0,4.9-2.7,9.5-7,11.9l-5.3,3l1.8,5.8c0.4,1.3,0.6,2.6,0.6,3.9
		c0,0.2,0,0.4,0,0.6v6.6l6.5,0.9c3.3,0.4,6.2,2.3,8,5.1l3.3,5.1l5.7-2.2c2.2-0.8,4.5-1.2,6.9-1.2c6.5,0,12.6,3.2,16.2,8.6l4.9,7.3
		l6.4-5.9c2.1-1.9,4.8-3,7.7-3c6.2,0,11.3,5.1,11.3,11.3c0,4.1-2.2,7.9-5.8,9.9l-5.3,3l1.8,5.8c0.2,0.6,0.3,1.2,0.4,1.9l1.3,11.1
		l9.8-5.4c1.7-0.9,3.5-1.4,5.5-1.4c6.2,0,11.3,5.1,11.3,11.3c0,2.6-0.8,5-2.4,7l-3.6,4.6l3.6,4.6c1.6,2,2.4,4.4,2.4,7
		C305.8,153.8,303.6,157.6,300,159.6z"/>
	<path class="st0" d="M229.2,98.8c-1.9-1.2-3.9-2-6-2.5c-1.5-7.5-6.1-14.2-12.8-18.4c-11.4-7-25.9-4.8-34.8,4.5
		c-13-7.1-29.5-2.8-37.3,10l12.8,7.8c3.7-6.1,11.8-8.1,17.9-4.3c1,0.6,1.9,1.4,2.8,2.3l7.6,8.2l4.7-10.1c0.2-0.5,0.5-0.9,0.7-1.3
		c3.7-6.1,11.8-8.1,17.9-4.3c4.1,2.5,6.5,7.1,6.2,12l-0.6,8.9l8.9-1c1.1-0.1,2.7,0,4.4,1c3.3,2,4.3,6.3,2.3,9.6l12.8,7.8
		C242.8,118.7,239.5,105.1,229.2,98.8z"/>
	<path class="st0" d="M134.2,112.2c-7.3,0-14.3,3.2-19.1,8.4c-2.7-0.9-5.5-1.4-8.4-1.4c-14.1,0-25.5,11.4-25.5,25.5h15
		c0-5.8,4.7-10.5,10.5-10.5c2.3,0,4.4,0.7,6.3,2.1l7.4,5.5l3.9-8.3c1.8-3.8,5.7-6.3,9.9-6.3c6.1,0,11,4.9,11,11h15
		C160.2,123.8,148.5,112.2,134.2,112.2z"/>
</g>
</svg>
