<svg xmlns="http://www.w3.org/2000/svg" width="24.36" height="23.345" viewBox="0 0 24.36 23.345">
  <path id="star_1_" data-name="star (1)" d="M5.453,23.837a1.3,1.3,0,0,1-1.262-1.583l1.567-6.9L.444,10.689a1.3,1.3,0,0,1,.734-2.266L8.21,7.785l2.78-6.506a1.295,1.295,0,0,1,2.381,0l2.78,6.507,7.031.638a1.3,1.3,0,0,1,.736,2.266L18.6,15.349l1.567,6.9a1.294,1.294,0,0,1-1.926,1.4L12.18,20.028,6.117,23.653a1.3,1.3,0,0,1-.664.184Zm6.728-5.37a1.3,1.3,0,0,1,.664.184l5.723,3.423-1.479-6.516A1.3,1.3,0,0,1,17.5,14.3l5.018-4.4-6.639-.6A1.293,1.293,0,0,1,14.8,8.507L12.18,2.367,9.556,8.508a1.29,1.29,0,0,1-1.073.782l-6.64.6,5.018,4.4a1.292,1.292,0,0,1,.41,1.263L5.794,22.072l5.723-3.422a1.3,1.3,0,0,1,.664-.184ZM8.156,7.911a0,0,0,0,1,0,0Zm8.047,0v0S16.2,7.909,16.2,7.908Zm0,0" transform="translate(-0.001 -0.492)" fill="#fff"/>
</svg>
