<?xml version="1.0" encoding="utf-8"?>
<!-- Generator: Adobe Illustrator 24.1.1, SVG Export Plug-In . SVG Version: 6.00 Build 0)  -->
<svg version="1.1" id="Warstwa_1" xmlns="http://www.w3.org/2000/svg" xmlns:xlink="http://www.w3.org/1999/xlink" x="0px" y="0px"
	 viewBox="0 0 24.4 23.3" style="enable-background:new 0 0 24.4 23.3;" xml:space="preserve">
<style type="text/css">
	.st0{fill:#FFFFFF;}
</style>
<path class="st0" d="M24.3,9.4c0.1-0.7-0.5-1.4-1.2-1.4l-7-0.6l-2.8-6.5c-0.1-0.3-0.4-0.5-0.7-0.7c-0.7-0.3-1.4,0-1.7,0.7L8.2,7.3
	l-7,0.6C0.9,8,0.6,8.1,0.3,8.4c-0.5,0.5-0.4,1.4,0.1,1.8l5.3,4.7l-1.6,6.9c0,0.1,0,0.2,0,0.3c0,0.7,0.6,1.3,1.3,1.3
	c0.2,0,0.5-0.1,0.7-0.2l6.1-3.6l6.1,3.6c0.3,0.2,0.6,0.2,1,0.2c0.7-0.2,1.1-0.9,1-1.6l-1.6-6.9l5.3-4.7C24.2,10,24.3,9.7,24.3,9.4z"
	/>
</svg>
