<?xml version="1.0" encoding="utf-8"?>
<!-- Generator: Adobe Illustrator 24.1.1, SVG Export Plug-In . SVG Version: 6.00 Build 0)  -->
<svg version="1.1" id="Warstwa_1" xmlns="http://www.w3.org/2000/svg" xmlns:xlink="http://www.w3.org/1999/xlink" x="0px" y="0px"
	 viewBox="0 0 24.4 23.3" style="enable-background:new 0 0 24.4 23.3;" xml:space="preserve">
<style type="text/css">
	.st0{fill:#FFFFFF;}
</style>
<polygon class="st0" points="8,20.9 9.6,20.1 6.5,22 4.9,22.2 6.4,14.8 3.2,11.7 0.9,9 3.3,8.3 7,8.3 7.4,7.7 8,7.8 "/>
<path id="star_1_" class="st0" d="M5.5,23.3c-0.7,0-1.3-0.6-1.3-1.3c0-0.1,0-0.2,0-0.3l1.6-6.9l-5.3-4.7c-0.5-0.5-0.6-1.3-0.1-1.8
	C0.6,8.1,0.9,8,1.2,7.9l7-0.6L11,0.8c0.3-0.7,1-1,1.7-0.7c0.3,0.1,0.5,0.4,0.7,0.7l2.8,6.5l7,0.6c0.7,0.1,1.2,0.7,1.2,1.4
	c0,0.3-0.2,0.6-0.4,0.8l-5.3,4.7l1.6,6.9c0.2,0.7-0.3,1.4-1,1.6c-0.3,0.1-0.7,0-1-0.2l-6.1-3.6l-6.1,3.6C5.9,23.3,5.7,23.3,5.5,23.3
	z M12.2,18c0.2,0,0.5,0.1,0.7,0.2l5.7,3.4l-1.5-6.5c-0.1-0.5,0.1-0.9,0.4-1.3l5-4.4l-6.6-0.6c-0.5,0-0.9-0.3-1.1-0.8l-2.6-6.1L9.6,8
	C9.4,8.5,9,8.8,8.5,8.8L1.8,9.4l5,4.4c0.4,0.3,0.5,0.8,0.4,1.3l-1.5,6.5l5.7-3.4C11.7,18,11.9,18,12.2,18L12.2,18z M8.2,7.4L8.2,7.4
	z M16.2,7.4L16.2,7.4C16.2,7.4,16.2,7.4,16.2,7.4L16.2,7.4z"/>
</svg>
