<?xml version="1.0" encoding="utf-8"?>
<!-- Generator: Adobe Illustrator 24.1.1, SVG Export Plug-In . SVG Version: 6.00 Build 0)  -->
<svg version="1.1" id="Warstwa_1" xmlns="http://www.w3.org/2000/svg" xmlns:xlink="http://www.w3.org/1999/xlink" x="0px" y="0px"
	 viewBox="0 0 13.5 13.5" style="enable-background:new 0 0 13.5 13.5;" xml:space="preserve">
<style type="text/css">
	.st0{fill:#FFFFFF;}
</style>
<path class="st0" d="M13.1,5.9C13.1,5.9,13.1,5.9,13.1,5.9L7.6,0.4C7.4,0.1,7.1,0,6.7,0S6.1,0.1,5.9,0.4L0.4,5.9c0,0,0,0,0,0
	c-0.5,0.5-0.5,1.3,0,1.8C0.6,7.8,0.9,8,1.2,8c0,0,0,0,0,0h0.2v4c0,0.8,0.7,1.5,1.5,1.5H5c0.2,0,0.4-0.2,0.4-0.4V9.9
	c0-0.4,0.3-0.7,0.7-0.7h1.3C7.7,9.2,8,9.5,8,9.9v3.2c0,0.2,0.2,0.4,0.4,0.4h2.2c0.8,0,1.5-0.7,1.5-1.5V8h0.2c0.3,0,0.6-0.1,0.9-0.4
	C13.6,7.1,13.6,6.3,13.1,5.9z"/>
</svg>
