<?xml version="1.0" encoding="utf-8"?>
<!-- Generator: Adobe Illustrator 24.1.1, SVG Export Plug-In . SVG Version: 6.00 Build 0)  -->
<svg version="1.1" id="Capa_1" xmlns="http://www.w3.org/2000/svg" xmlns:xlink="http://www.w3.org/1999/xlink" x="0px" y="0px"
	 viewBox="0 0 86 86" style="enable-background:new 0 0 86 86;" xml:space="preserve">
<style type="text/css">
	.st0{fill:#FFFFFF;}
</style>
<g>
	<g>
		<path class="st0" d="M84.6,31.1c0-14.5-11.8-26.3-26.3-26.3c-6.2,0-12.1,2.1-16.7,6c-2.6-0.8-5.3-1.3-8.1-1.3
			C18.9,9.5,7.1,21.3,7.1,35.8c0,0.9,0,1.8,0.1,2.7c-3.7,4.6-5.8,10.4-5.8,16.5c0,14.5,11.8,26.3,26.3,26.3c4.5,0,9-1.2,12.9-3.4
			c2.8,1,5.8,1.5,8.8,1.5C64,79.4,75.8,67.6,75.8,53c0-0.8,0-1.5-0.1-2.3C81.3,45.8,84.6,38.7,84.6,31.1z M63.8,41l-5.3,3l1.8,5.8
			c0.3,1.1,0.5,2.2,0.5,3.3c0,6.2-5.1,11.3-11.3,11.3c-2,0-4-0.5-5.7-1.5l-4.6-2.7l-4.1,3.4c-2.1,1.8-4.6,2.7-7.3,2.7
			c-6.2,0-11.3-5.1-11.3-11.3c0-3.2,1.4-6.3,3.8-8.5l3.5-3.1l-1.3-4.5c-0.3-1-0.4-2-0.4-3c0-6.2,5.1-11.3,11.3-11.3
			c2.1,0,4.1,0.6,5.9,1.6l5.8,3.5l4.1-5.4c2.2-2.9,5.5-4.5,9-4.5c6.2,0,11.3,5.1,11.3,11.3C69.6,35.2,67.3,39,63.8,41z"/>
	</g>
</g>
</svg>
