<?xml version="1.0" encoding="utf-8"?>
<!-- Generator: Adobe Illustrator 24.1.1, SVG Export Plug-In . SVG Version: 6.00 Build 0)  -->
<svg version="1.1" id="Capa_1" xmlns="http://www.w3.org/2000/svg" xmlns:xlink="http://www.w3.org/1999/xlink" x="0px" y="0px"
	 viewBox="0 0 86 86" style="enable-background:new 0 0 86 86;" xml:space="preserve">
<style type="text/css">
	.st0{fill:#FFFFFF;}
</style>
<g>
	<g>
		<path class="st0" d="M86,32.8C86,17,73.2,4.2,57.4,4.2C50.5,4.2,44,6.6,38.9,11c-3-1-6.1-1.5-9.2-1.5C13.9,9.4,1,22.3,1,38.1
			C1,50.2,8.9,61,20,65c3.4,12.1,14.6,21,27.6,21c15.8,0,28.6-12.8,28.6-28.6c0-1,0-1.9-0.1-2.9C82.3,49.1,86,41.2,86,32.8z
			 M64.1,44.6l-5.3,3l1.8,5.8c0.4,1.3,0.6,2.6,0.6,4c0,7.5-6.1,13.6-13.6,13.6c-7.1,0-13.1-5.5-13.6-12.6l-0.4-6l-6-0.9
			C21,50.5,16,44.7,16,38.1c0-7.5,6.1-13.6,13.6-13.6c2.5,0,4.9,0.7,7.1,2l5.8,3.5l4.1-5.4c2.6-3.4,6.6-5.4,10.8-5.4
			c7.5,0,13.6,6.1,13.6,13.6C71,37.7,68.4,42.2,64.1,44.6z"/>
	</g>
</g>
</svg>
