<?xml version="1.0" encoding="utf-8"?>
<!-- Generator: Adobe Illustrator 24.1.1, SVG Export Plug-In . SVG Version: 6.00 Build 0)  -->
<svg version="1.1" id="Warstwa_1" xmlns="http://www.w3.org/2000/svg" xmlns:xlink="http://www.w3.org/1999/xlink" x="0px" y="0px"
	 viewBox="0 0 24.4 23.3" style="enable-background:new 0 0 24.4 23.3;" xml:space="preserve">
<style type="text/css">
	.st0{fill:#FFFFFF;}
</style>
<path class="st0" d="M24.4,9.3c0-0.7-0.5-1.3-1.2-1.4l-7-0.6l-2.8-6.5c-0.2-0.3-0.4-0.6-0.7-0.7c-0.7-0.3-1.4,0-1.7,0.7L8.2,7.3
	l-7,0.6C0.9,8,0.6,8.1,0.4,8.3C-0.1,8.8,0,9.6,0.5,10.1l5.3,4.7l-1.6,6.9c0,0.1,0,0.2,0,0.3c0,0.7,0.6,1.3,1.3,1.3
	c0.2,0,0.4,0,0.6-0.2l6.1-3.6l6.1,3.6c0.3,0.2,0.7,0.3,1,0.2c0.7-0.2,1.2-0.9,1-1.6l-1.6-6.9l5.3-4.7C24.2,9.9,24.4,9.6,24.4,9.3z
	 M20.4,11.2v-2l2.1,0.2L20.4,11.2z"/>
</svg>
